<?xml version="1.0" encoding="UTF-8" standalone="no"?>
<!DOCTYPE svg PUBLIC "-//W3C//DTD SVG 1.1//EN"
 "http://www.w3.org/Graphics/SVG/1.1/DTD/svg11.dtd">
<!-- Generated by graphviz version 2.40.1 (20161225.0304)
 -->
<!-- Title: asd Pages: 1 -->
<svg width="753pt" height="338pt"
 viewBox="0.00 0.00 753.00 338.00" xmlns="http://www.w3.org/2000/svg" xmlns:xlink="http://www.w3.org/1999/xlink">
<g id="graph0" class="graph" transform="scale(1 1) rotate(0) translate(4 334)">
<title>asd</title>
<polygon fill="#00ffff" stroke="transparent" points="-4,4 -4,-334 749,-334 749,4 -4,4"/>
<text text-anchor="middle" x="372.5" y="-7.8" font-family="Times,serif" font-size="14.00" fill="#000000">软件技术相关</text>
<g id="clust1" class="cluster">
<title>cluster_1</title>
<polygon fill="#00ffff" stroke="#000000" points="8,-31 8,-322 468,-322 468,-31 8,-31"/>
<text text-anchor="middle" x="238" y="-306.8" font-family="Times,serif" font-size="14.00" fill="#000000">编程语言</text>
</g>
<g id="clust5" class="cluster">
<title>cluster_3</title>
<polygon fill="#00ffff" stroke="#000000" points="476,-103 476,-322 737,-322 737,-103 476,-103"/>
<text text-anchor="middle" x="606.5" y="-306.8" font-family="Times,serif" font-size="14.00" fill="#000000">写作文档</text>
</g>
<!-- Assembly -->
<g id="node1" class="node">
<title>Assembly</title>
<ellipse fill="#87ceeb" stroke="#000000" cx="374" cy="-273" rx="46.2923" ry="18"/>
<text text-anchor="middle" x="374" y="-269.3" font-family="Times,serif" font-size="14.00" fill="#000000">Assembly</text>
</g>
<!-- C -->
<g id="node2" class="node">
<title>C</title>
<ellipse fill="#87ceeb" stroke="#000000" cx="367" cy="-201" rx="27" ry="18"/>
<text text-anchor="middle" x="367" y="-197.3" font-family="Times,serif" font-size="14.00" fill="#000000">C</text>
</g>
<!-- Assembly&#45;&gt;C -->
<g id="edge1" class="edge">
<title>Assembly&#45;&gt;C</title>
<path fill="none" stroke="#000000" d="M372.2336,-254.8314C371.485,-247.131 370.5947,-237.9743 369.7627,-229.4166"/>
<polygon fill="#000000" stroke="#000000" points="373.2415,-229.0276 368.7902,-219.4133 366.2744,-229.7051 373.2415,-229.0276"/>
</g>
<!-- Swift -->
<g id="node3" class="node">
<title>Swift</title>
<ellipse fill="#87ceeb" stroke="#000000" cx="286" cy="-129" rx="29.795" ry="18"/>
<text text-anchor="middle" x="286" y="-125.3" font-family="Times,serif" font-size="14.00" fill="#000000">Swift</text>
</g>
<!-- C&#45;&gt;Swift -->
<g id="edge2" class="edge">
<title>C&#45;&gt;Swift</title>
<path fill="none" stroke="#000000" d="M350.6084,-186.4297C339.1238,-176.2212 323.5726,-162.3979 310.6054,-150.8714"/>
<polygon fill="#000000" stroke="#000000" points="312.7242,-148.072 302.9248,-144.0442 308.0736,-153.3039 312.7242,-148.072"/>
</g>
<!-- C++ -->
<g id="node4" class="node">
<title>C++</title>
<ellipse fill="#87ceeb" stroke="#000000" cx="361" cy="-129" rx="27.0966" ry="18"/>
<text text-anchor="middle" x="361" y="-125.3" font-family="Times,serif" font-size="14.00" fill="#000000">C++</text>
</g>
<!-- C&#45;&gt;C++ -->
<g id="edge3" class="edge">
<title>C&#45;&gt;C++</title>
<path fill="none" stroke="#000000" d="M365.4859,-182.8314C364.8442,-175.131 364.0812,-165.9743 363.3681,-157.4166"/>
<polygon fill="#000000" stroke="#000000" points="366.8529,-157.088 362.5344,-147.4133 359.8771,-157.6694 366.8529,-157.088"/>
</g>
<!-- Go -->
<g id="node5" class="node">
<title>Go</title>
<ellipse fill="#87ceeb" stroke="#000000" cx="433" cy="-129" rx="27" ry="18"/>
<text text-anchor="middle" x="433" y="-125.3" font-family="Times,serif" font-size="14.00" fill="#000000">Go</text>
</g>
<!-- C&#45;&gt;Go -->
<g id="edge4" class="edge">
<title>C&#45;&gt;Go</title>
<path fill="none" stroke="#000000" d="M381.321,-185.3771C390.2292,-175.659 401.8452,-162.987 411.8075,-152.1191"/>
<polygon fill="#000000" stroke="#000000" points="414.5297,-154.3291 418.7069,-144.5924 409.3696,-149.599 414.5297,-154.3291"/>
</g>
<!-- Rust -->
<g id="node6" class="node">
<title>Rust</title>
<ellipse fill="#87ceeb" stroke="#000000" cx="361" cy="-57" rx="27" ry="18"/>
<text text-anchor="middle" x="361" y="-53.3" font-family="Times,serif" font-size="14.00" fill="#000000">Rust</text>
</g>
<!-- Swift&#45;&gt;Rust -->
<g id="edge5" class="edge">
<title>Swift&#45;&gt;Rust</title>
<path fill="none" stroke="#000000" d="M301.9056,-113.7307C312.4169,-103.6398 326.3619,-90.2526 338.0657,-79.0169"/>
<polygon fill="#000000" stroke="#000000" points="340.5845,-81.4507 345.3745,-72.0004 335.7368,-76.4009 340.5845,-81.4507"/>
</g>
<!-- C++&#45;&gt;Rust -->
<g id="edge6" class="edge">
<title>C++&#45;&gt;Rust</title>
<path fill="none" stroke="#000000" d="M361,-110.8314C361,-103.131 361,-93.9743 361,-85.4166"/>
<polygon fill="#000000" stroke="#000000" points="364.5001,-85.4132 361,-75.4133 357.5001,-85.4133 364.5001,-85.4132"/>
</g>
<!-- Go&#45;&gt;Rust -->
<g id="edge7" class="edge">
<title>Go&#45;&gt;Rust</title>
<path fill="none" stroke="#000000" d="M417.7307,-113.7307C407.803,-103.803 394.6847,-90.6847 383.5637,-79.5637"/>
<polygon fill="#000000" stroke="#000000" points="385.7933,-76.8436 376.2473,-72.2473 380.8436,-81.7933 385.7933,-76.8436"/>
</g>
<!-- PHP -->
<g id="node7" class="node">
<title>PHP</title>
<ellipse fill="#87ceeb" stroke="#000000" cx="283" cy="-273" rx="27" ry="18"/>
<text text-anchor="middle" x="283" y="-269.3" font-family="Times,serif" font-size="14.00" fill="#000000">PHP</text>
</g>
<!-- Java -->
<g id="node8" class="node">
<title>Java</title>
<ellipse fill="#87ceeb" stroke="#000000" cx="278" cy="-201" rx="27" ry="18"/>
<text text-anchor="middle" x="278" y="-197.3" font-family="Times,serif" font-size="14.00" fill="#000000">Java</text>
</g>
<!-- PHP&#45;&gt;Java -->
<g id="edge8" class="edge">
<title>PHP&#45;&gt;Java</title>
<path fill="none" stroke="#000000" d="M281.7383,-254.8314C281.2035,-247.131 280.5677,-237.9743 279.9734,-229.4166"/>
<polygon fill="#000000" stroke="#000000" points="283.4632,-229.1467 279.2787,-219.4133 276.48,-229.6317 283.4632,-229.1467"/>
</g>
<!-- Lua -->
<g id="node9" class="node">
<title>Lua</title>
<ellipse fill="#87ceeb" stroke="#000000" cx="211" cy="-129" rx="27" ry="18"/>
<text text-anchor="middle" x="211" y="-125.3" font-family="Times,serif" font-size="14.00" fill="#000000">Lua</text>
</g>
<!-- Java&#45;&gt;Lua -->
<g id="edge9" class="edge">
<title>Java&#45;&gt;Lua</title>
<path fill="none" stroke="#000000" d="M263.462,-185.3771C254.4188,-175.659 242.6268,-162.987 232.5136,-152.1191"/>
<polygon fill="#000000" stroke="#000000" points="234.8842,-149.5288 225.5096,-144.5924 229.7597,-154.2975 234.8842,-149.5288"/>
</g>
<!-- Julia -->
<g id="node12" class="node">
<title>Julia</title>
<ellipse fill="#87ceeb" stroke="#000000" cx="130" cy="-57" rx="27.0966" ry="18"/>
<text text-anchor="middle" x="130" y="-53.3" font-family="Times,serif" font-size="14.00" fill="#000000">Julia</text>
</g>
<!-- Lua&#45;&gt;Julia -->
<g id="edge10" class="edge">
<title>Lua&#45;&gt;Julia</title>
<path fill="none" stroke="#000000" d="M194.6084,-114.4297C182.9707,-104.0851 167.1572,-90.0286 154.0881,-78.4116"/>
<polygon fill="#000000" stroke="#000000" points="156.1666,-75.5763 146.3672,-71.5486 151.516,-80.8082 156.1666,-75.5763"/>
</g>
<!-- Ruby -->
<g id="node10" class="node">
<title>Ruby</title>
<ellipse fill="#87ceeb" stroke="#000000" cx="46" cy="-129" rx="29.795" ry="18"/>
<text text-anchor="middle" x="46" y="-125.3" font-family="Times,serif" font-size="14.00" fill="#000000">Ruby</text>
</g>
<!-- Ruby&#45;&gt;Julia -->
<g id="edge11" class="edge">
<title>Ruby&#45;&gt;Julia</title>
<path fill="none" stroke="#000000" d="M63.4049,-114.0816C75.5027,-103.712 91.8041,-89.7393 105.2504,-78.2139"/>
<polygon fill="#000000" stroke="#000000" points="107.8758,-80.5734 113.1906,-71.408 103.3203,-75.2586 107.8758,-80.5734"/>
</g>
<!-- Python -->
<g id="node11" class="node">
<title>Python</title>
<ellipse fill="#87ceeb" stroke="#000000" cx="130" cy="-129" rx="35.9954" ry="18"/>
<text text-anchor="middle" x="130" y="-125.3" font-family="Times,serif" font-size="14.00" fill="#000000">Python</text>
</g>
<!-- Python&#45;&gt;Julia -->
<g id="edge12" class="edge">
<title>Python&#45;&gt;Julia</title>
<path fill="none" stroke="#000000" d="M130,-110.8314C130,-103.131 130,-93.9743 130,-85.4166"/>
<polygon fill="#000000" stroke="#000000" points="133.5001,-85.4132 130,-75.4133 126.5001,-85.4133 133.5001,-85.4132"/>
</g>
<!-- Perl -->
<g id="node13" class="node">
<title>Perl</title>
<ellipse fill="#87ceeb" stroke="#000000" cx="46" cy="-201" rx="27" ry="18"/>
<text text-anchor="middle" x="46" y="-197.3" font-family="Times,serif" font-size="14.00" fill="#000000">Perl</text>
</g>
<!-- Perl&#45;&gt;Ruby -->
<g id="edge19" class="edge">
<title>Perl&#45;&gt;Ruby</title>
<path fill="none" stroke="#000000" d="M46,-182.8314C46,-175.131 46,-165.9743 46,-157.4166"/>
<polygon fill="#000000" stroke="#000000" points="49.5001,-157.4132 46,-147.4133 42.5001,-157.4133 49.5001,-157.4132"/>
</g>
<!-- Perl&#45;&gt;Python -->
<g id="edge13" class="edge">
<title>Perl&#45;&gt;Python</title>
<path fill="none" stroke="#000000" d="M62.5957,-186.7751C74.4264,-176.6345 90.5648,-162.8016 104.0841,-151.2136"/>
<polygon fill="#000000" stroke="#000000" points="106.3743,-153.8604 111.6891,-144.6951 101.8187,-148.5456 106.3743,-153.8604"/>
</g>
<!-- C# -->
<g id="node14" class="node">
<title>C#</title>
<ellipse fill="#87ceeb" stroke="#000000" cx="201" cy="-201" rx="27" ry="18"/>
<text text-anchor="middle" x="201" y="-197.3" font-family="Times,serif" font-size="14.00" fill="#000000">C#</text>
</g>
<!-- C#&#45;&gt;Python -->
<g id="edge14" class="edge">
<title>C#&#45;&gt;Python</title>
<path fill="none" stroke="#000000" d="M185.9427,-185.7307C176.4176,-176.0713 163.9138,-163.3915 153.1437,-152.4696"/>
<polygon fill="#000000" stroke="#000000" points="155.5359,-149.9108 146.0223,-145.248 150.5517,-154.8259 155.5359,-149.9108"/>
</g>
<!-- R -->
<g id="node15" class="node">
<title>R</title>
<ellipse fill="#87ceeb" stroke="#000000" cx="126" cy="-201" rx="27" ry="18"/>
<text text-anchor="middle" x="126" y="-197.3" font-family="Times,serif" font-size="14.00" fill="#000000">R</text>
</g>
<!-- R&#45;&gt;Python -->
<g id="edge15" class="edge">
<title>R&#45;&gt;Python</title>
<path fill="none" stroke="#000000" d="M127.0094,-182.8314C127.4372,-175.131 127.9459,-165.9743 128.4213,-157.4166"/>
<polygon fill="#000000" stroke="#000000" points="131.9169,-157.592 128.977,-147.4133 124.9276,-157.2037 131.9169,-157.592"/>
</g>
<!-- Basic -->
<g id="node16" class="node">
<title>Basic</title>
<ellipse fill="#87ceeb" stroke="#000000" cx="207" cy="-273" rx="30.5947" ry="18"/>
<text text-anchor="middle" x="207" y="-269.3" font-family="Times,serif" font-size="14.00" fill="#000000">Basic</text>
</g>
<!-- Basic&#45;&gt;C# -->
<g id="edge16" class="edge">
<title>Basic&#45;&gt;C#</title>
<path fill="none" stroke="#000000" d="M205.4859,-254.8314C204.8442,-247.131 204.0812,-237.9743 203.3681,-229.4166"/>
<polygon fill="#000000" stroke="#000000" points="206.8529,-229.088 202.5344,-219.4133 199.8771,-229.6694 206.8529,-229.088"/>
</g>
<!-- matlab -->
<g id="node17" class="node">
<title>matlab</title>
<ellipse fill="#87ceeb" stroke="#000000" cx="123" cy="-273" rx="35.194" ry="18"/>
<text text-anchor="middle" x="123" y="-269.3" font-family="Times,serif" font-size="14.00" fill="#000000">matlab</text>
</g>
<!-- matlab&#45;&gt;R -->
<g id="edge17" class="edge">
<title>matlab&#45;&gt;R</title>
<path fill="none" stroke="#000000" d="M123.757,-254.8314C124.0779,-247.131 124.4594,-237.9743 124.816,-229.4166"/>
<polygon fill="#000000" stroke="#000000" points="128.3133,-229.5503 125.2328,-219.4133 121.3194,-229.2589 128.3133,-229.5503"/>
</g>
<!-- shell -->
<g id="node18" class="node">
<title>shell</title>
<ellipse fill="#87ceeb" stroke="#000000" cx="43" cy="-273" rx="27.0966" ry="18"/>
<text text-anchor="middle" x="43" y="-269.3" font-family="Times,serif" font-size="14.00" fill="#000000">shell</text>
</g>
<!-- shell&#45;&gt;Perl -->
<g id="edge18" class="edge">
<title>shell&#45;&gt;Perl</title>
<path fill="none" stroke="#000000" d="M43.757,-254.8314C44.0779,-247.131 44.4594,-237.9743 44.816,-229.4166"/>
<polygon fill="#000000" stroke="#000000" points="48.3133,-229.5503 45.2328,-219.4133 41.3194,-229.2589 48.3133,-229.5503"/>
</g>
<!-- CSS -->
<g id="node19" class="node">
<title>CSS</title>
<ellipse fill="#87ceeb" stroke="#000000" cx="702" cy="-273" rx="27" ry="18"/>
<text text-anchor="middle" x="702" y="-269.3" font-family="Times,serif" font-size="14.00" fill="#000000">CSS</text>
</g>
<!-- markdown -->
<g id="node22" class="node">
<title>markdown</title>
<ellipse fill="#87ceeb" stroke="#000000" cx="615" cy="-201" rx="48.9926" ry="18"/>
<text text-anchor="middle" x="615" y="-197.3" font-family="Times,serif" font-size="14.00" fill="#000000">markdown</text>
</g>
<!-- CSS&#45;&gt;markdown -->
<g id="edge20" class="edge">
<title>CSS&#45;&gt;markdown</title>
<path fill="none" stroke="#000000" d="M684.8116,-258.7751C672.8068,-248.8401 656.5194,-235.3609 642.6962,-223.921"/>
<polygon fill="#000000" stroke="#000000" points="644.8285,-221.1426 634.8931,-217.4632 640.3655,-226.5353 644.8285,-221.1426"/>
</g>
<!-- graphviz -->
<g id="node20" class="node">
<title>graphviz</title>
<ellipse fill="#87ceeb" stroke="#000000" cx="615" cy="-273" rx="41.6928" ry="18"/>
<text text-anchor="middle" x="615" y="-269.3" font-family="Times,serif" font-size="14.00" fill="#000000">graphviz</text>
</g>
<!-- graphviz&#45;&gt;markdown -->
<g id="edge21" class="edge">
<title>graphviz&#45;&gt;markdown</title>
<path fill="none" stroke="#000000" d="M615,-254.8314C615,-247.131 615,-237.9743 615,-229.4166"/>
<polygon fill="#000000" stroke="#000000" points="618.5001,-229.4132 615,-219.4133 611.5001,-229.4133 618.5001,-229.4132"/>
</g>
<!-- LaTeX -->
<g id="node21" class="node">
<title>LaTeX</title>
<ellipse fill="#87ceeb" stroke="#000000" cx="520" cy="-273" rx="35.9954" ry="18"/>
<text text-anchor="middle" x="520" y="-269.3" font-family="Times,serif" font-size="14.00" fill="#000000">LaTeX</text>
</g>
<!-- LaTeX&#45;&gt;markdown -->
<g id="edge22" class="edge">
<title>LaTeX&#45;&gt;markdown</title>
<path fill="none" stroke="#000000" d="M540.1471,-257.7307C553.2597,-247.7927 570.5909,-234.6574 585.2743,-223.529"/>
<polygon fill="#000000" stroke="#000000" points="587.7061,-226.0776 593.5617,-217.248 583.4779,-220.4988 587.7061,-226.0776"/>
</g>
<!-- Marp -->
<g id="node23" class="node">
<title>Marp</title>
<ellipse fill="#87ceeb" stroke="#000000" cx="539" cy="-129" rx="30.5947" ry="18"/>
<text text-anchor="middle" x="539" y="-125.3" font-family="Times,serif" font-size="14.00" fill="#000000">Marp</text>
</g>
<!-- markdown&#45;&gt;Marp -->
<g id="edge23" class="edge">
<title>markdown&#45;&gt;Marp</title>
<path fill="none" stroke="#000000" d="M596.9891,-183.937C586.7176,-174.2062 573.7223,-161.8948 562.6384,-151.3943"/>
<polygon fill="#000000" stroke="#000000" points="564.9939,-148.8045 555.3272,-144.4679 560.1797,-153.8862 564.9939,-148.8045"/>
</g>
<!-- html -->
<g id="node24" class="node">
<title>html</title>
<ellipse fill="#87ceeb" stroke="#000000" cx="615" cy="-129" rx="27.0966" ry="18"/>
<text text-anchor="middle" x="615" y="-125.3" font-family="Times,serif" font-size="14.00" fill="#000000">html</text>
</g>
<!-- markdown&#45;&gt;html -->
<g id="edge24" class="edge">
<title>markdown&#45;&gt;html</title>
<path fill="none" stroke="#000000" d="M615,-182.8314C615,-175.131 615,-165.9743 615,-157.4166"/>
<polygon fill="#000000" stroke="#000000" points="618.5001,-157.4132 615,-147.4133 611.5001,-157.4133 618.5001,-157.4132"/>
</g>
<!-- PDF -->
<g id="node25" class="node">
<title>PDF</title>
<ellipse fill="#87ceeb" stroke="#000000" cx="687" cy="-129" rx="27" ry="18"/>
<text text-anchor="middle" x="687" y="-125.3" font-family="Times,serif" font-size="14.00" fill="#000000">PDF</text>
</g>
<!-- markdown&#45;&gt;PDF -->
<g id="edge25" class="edge">
<title>markdown&#45;&gt;PDF</title>
<path fill="none" stroke="#000000" d="M632.063,-183.937C641.8341,-174.1659 654.2072,-161.7928 664.7361,-151.2639"/>
<polygon fill="#000000" stroke="#000000" points="667.417,-153.5327 672.0132,-143.9868 662.4673,-148.583 667.417,-153.5327"/>
</g>
</g>
</svg>
